<svg id="图层_2" data-name="图层 2" xmlns="http://www.w3.org/2000/svg" viewBox="0 0 287.95 33.61"><defs><style>.cls-1{fill:#e7372f;}.cls-2{fill:#ef8337;}.cls-3{fill:#3071b7;}.cls-4{fill:#40b15d;}.cls-5{fill:#f6f6f6;}</style></defs><title>logo_light</title><path class="cls-1" d="M38,22.2c.43.63.75-.08,1.21-.08s.66.68.66,1.12A1.85,1.85,0,0,1,37.9,25c-1.94,0-2.68-2.11-2.31-4.22a4.22,4.22,0,0,1,4.24-3.2c2.4.11,5.58,2.54,5.42,7a8.52,8.52,0,0,1-8.57,8.19c-6.94-.19-10.51-5.07-13-8.8.59,3,4.79,12.5,14.34,12.54,7.64,0,12.52-6,12.11-13.14-.31-5.4-5.45-9.55-9.63-9.55a7.82,7.82,0,0,0-7.7,7.59c0,3.34,2.62,5.57,4.56,5.57s3.85-1.66,3.76-3.42-1-2.39-1.91-2.41S37.72,21.85,38,22.2Z" transform="translate(-6.5 -3.19)"/><path class="cls-2" d="M30.75,13.11a1.25,1.25,0,0,0-1.35-1.32,2.38,2.38,0,0,0-2.1,2.62,3.73,3.73,0,0,0,4,3.45c2.85,0,5.66-2.91,5.68-6.66,0-4.25-4.25-8-8.79-8A9,9,0,0,0,19.29,13c.44,6.48,5.46,9.13,12,8.51-4.83-.6-8.08-3.11-8-7.72a5.25,5.25,0,0,1,5.33-5.08,4.19,4.19,0,0,1,4.06,4.24,2.57,2.57,0,0,1-2.41,2.55,1.91,1.91,0,0,1-1.67-2,1.18,1.18,0,0,1,1.24-1.14C30.23,12.3,30.57,12.72,30.75,13.11Z" transform="translate(-6.5 -3.19)"/><path class="cls-3" d="M15.31,15.07c.52,0,.32-1.18-.71-1.29a1.81,1.81,0,0,0-1.8,1.95,2.86,2.86,0,0,0,2.84,2.71c2.51-.12,4.1-2.08,3.65-5.47-.41-3.09-3-4.71-5.88-4.63s-7,2.08-6.91,7.72a9,9,0,0,0,9.8,8.66c3.94-.24,5.17-1.57,5.85-2.46a9.8,9.8,0,0,1-5.09,1c-3.14-.13-7.17-1.59-7.27-6.76-.08-4.05,2.91-5.29,4.46-5.22a3.27,3.27,0,0,1,3.24,2.94c.05,1.82-1.06,2.89-2.13,2.91a1.63,1.63,0,0,1-1.54-1.67.93.93,0,0,1,.84-.89C15.21,14.54,14.86,15.09,15.31,15.07Z" transform="translate(-6.5 -3.19)"/><path class="cls-4" d="M17.39,28.56a.79.79,0,0,0-.2.84.76.76,0,0,0,.84.46c.56,0,1-.58.94-1.32s-.54-1.26-1.6-1.3a1.82,1.82,0,0,0-1.7,2,3.15,3.15,0,0,0,3.22,2.87c2.93-.1,5.56-3,4.85-8.2.6,2.78,2,4.21,1,7.57a7.49,7.49,0,0,1-6.94,5.34A6.22,6.22,0,0,1,11.61,30c.19-3.85,2.69-5.26,4.69-5.29,2.17,0,4,1.4,4,3.24s-1.09,2.6-2.07,2.58a1.23,1.23,0,0,1-1.36-1.25C16.86,28.86,17.08,28.6,17.39,28.56Z" transform="translate(-6.5 -3.19)"/><polygon class="cls-5" points="67.38 3.81 63.77 3.81 59.78 9.54 63.43 9.54 67.38 3.81"/><path class="cls-5" d="M62.64,6.75H59.58V13.6H56.34v2.45h3.24v8.49a1,1,0,0,0,.14.52,1.27,1.27,0,0,0,.37.38,1.71,1.71,0,0,0,.49.24,1.85,1.85,0,0,0,.52.08h4.44V23.32h-2.9V16.05h3.61l3.28,8.89a1.1,1.1,0,0,0,.55.61,1.76,1.76,0,0,0,.79.2h3.79l.45-2.47h-3l-2.67-7.23h5.81V13.6H62.64Z" transform="translate(-6.5 -3.19)"/><polygon class="cls-5" points="75.14 15.19 71.96 15.19 70.72 22.57 73.84 22.57 75.14 15.19"/><polygon class="cls-5" points="84.19 6.89 89.01 6.89 89.01 4.45 76.35 4.45 76.35 6.89 81.13 6.89 81.13 20.03 75.95 20.03 75.95 22.48 89.38 22.48 89.38 20.03 84.19 20.03 84.19 6.89"/><polygon class="cls-5" points="75.18 8.16 74 3.75 70.86 3.75 72.06 8.16 75.18 8.16"/><polygon class="cls-5" points="75.16 13.81 73.9 9.4 70.78 9.4 72 13.81 75.16 13.81"/><path class="cls-5" d="M116.25,19.68a1,1,0,0,0,.17-.58V10H108.8V6.81h-3.06V10H99.89a2.85,2.85,0,0,0-.61.07,1.72,1.72,0,0,0-.56.23,1.48,1.48,0,0,0-.41.39,1,1,0,0,0-.17.59V20.4h7.6v5.43h3.06V20.4h5.85a2.4,2.4,0,0,0,.6-.08,2.19,2.19,0,0,0,.57-.24A1.35,1.35,0,0,0,116.25,19.68Zm-10.52-1.73h-4.54V12.4h4.54Zm7.62,0H108.8V12.4h4.56Z" transform="translate(-6.5 -3.19)"/><path class="cls-5" d="M130,24.65V12.79h-3.73l.08-1.94h3.89V8.41h-2.07V6.77h-3.06V8.41H123v2.45h.57l-.71,14.93h2.82l.49-10.66h1v8.35h-.85l.26,2.33h2.05a1.65,1.65,0,0,0,.95-.3A1,1,0,0,0,130,24.65Z" transform="translate(-6.5 -3.19)"/><polygon class="cls-5" points="126.76 7.15 131.03 7.15 131.03 4.7 127.08 4.7 127.24 3.58 124.53 3.58 123.92 8.41 126.61 8.41 126.76 7.15"/><polygon class="cls-5" points="112.15 3.77 113.1 8.18 116.04 8.18 115.07 3.77 112.15 3.77"/><path class="cls-5" d="M131.45,23.38v2.43h2.88a1.68,1.68,0,0,0,.49-.08,1.6,1.6,0,0,0,.46-.23,1.26,1.26,0,0,0,.35-.38,1,1,0,0,0,.14-.52v-5h1.78V17.12h-1.42l1.18-3.55a1,1,0,0,0,0-.55,1.21,1.21,0,0,0-.61-.81,1,1,0,0,0-.47-.13h-5.45v2.45H134l-.81,2.59h-2.57v2.45h2.29v3.81Z" transform="translate(-6.5 -3.19)"/><polygon class="cls-5" points="112.05 9.44 113.04 13.85 116.02 13.85 114.97 9.44 112.05 9.44"/><polygon class="cls-5" points="111.99 22.59 114.92 22.59 116 15.21 113 15.21 111.99 22.59"/><path class="cls-5" d="M148.69,16h1v6.34H149l.2,2.45h1.74a1.94,1.94,0,0,0,1.07-.35,1.54,1.54,0,0,0,.39-.4.94.94,0,0,0,.16-.53v-10h-3.87v-2h4.76L154,18.3l-1.13.14.24,2.41,1.11-.14.36,4.13a.84.84,0,0,0,.41.68,1.5,1.5,0,0,0,.79.23h2.27l.22-2.39h-.91l-.28-3,1.2-.16L158,17.79l-1.15.16-.57-6.36h2V9.14h-2.17l-.2-2.37L153.05,7l.18,2.15h-6.06a1.91,1.91,0,0,0-.54.08,1.71,1.71,0,0,0-.49.24,1.27,1.27,0,0,0-.37.39,1,1,0,0,0-.14.52V25.75h3.06Z" transform="translate(-6.5 -3.19)"/><polygon class="cls-5" points="138.61 19.32 137.19 19.32 137.19 9.64 138.51 9.64 138.51 7.19 137.19 7.19 137.19 3.81 134.13 3.81 134.13 7.19 132.81 7.19 132.81 9.64 134.13 9.64 134.13 19.32 132.71 19.32 132.71 21.77 138.61 21.77 138.61 19.32"/><polygon class="cls-5" points="151.73 5.49 151.51 3.83 149.81 3.83 150.07 5.49 151.73 5.49"/><path class="cls-5" d="M177.72,23.78a1.51,1.51,0,0,0,.41-.43,1.1,1.1,0,0,0,.16-.59v-9H171V11.59h7.76V9.14h-7.86l-.51-2.45h-3l.49,2.45h-7.7v2.45H168v2.17h-5.51a2.06,2.06,0,0,0-.59.09,2,2,0,0,0-.55.27,1.44,1.44,0,0,0-.41.43,1.06,1.06,0,0,0-.16.57v9h3.06V16.21H168v9.58H171V16.21h4.21v5.47h-2.65v2.45h4a2.19,2.19,0,0,0,.61-.09A1.82,1.82,0,0,0,177.72,23.78Z" transform="translate(-6.5 -3.19)"/><path class="cls-5" d="M185.12,7.27h-2.67a25.54,25.54,0,0,0-1,4.35,31,31,0,0,0,0,9.37,25.57,25.57,0,0,0,1,4.34h2.67a25.57,25.57,0,0,1-1-4.34,31.08,31.08,0,0,1,0-9.37A25.54,25.54,0,0,1,185.12,7.27Z" transform="translate(-6.5 -3.19)"/><polygon class="cls-5" points="199.08 19.95 191.48 19.95 191.48 6.86 198.55 6.86 198.55 4.41 180.99 4.41 180.99 6.86 188.42 6.86 188.42 19.95 180.46 19.95 180.46 22.4 199.08 22.4 199.08 19.95"/><path class="cls-5" d="M212.73,18.08a.9.9,0,0,0-.38.78v4.27h7.82a1.62,1.62,0,0,0,.45-.07,1.65,1.65,0,0,0,.43-.2,1.11,1.11,0,0,0,.33-.33.82.82,0,0,0,.13-.45V17.81h-8A1.4,1.4,0,0,0,212.73,18.08Zm2.51,1.79h3.4v1.2h-3.4Z" transform="translate(-6.5 -3.19)"/><polygon class="cls-5" points="214.33 12.01 211.29 12.01 213.06 14.24 216.1 14.24 214.33 12.01"/><polygon class="cls-5" points="204.93 14.24 207.97 14.24 209.75 12.01 206.7 12.01 204.93 14.24"/><polygon class="cls-5" points="219.76 4.5 212.04 4.5 212.04 3.56 208.96 3.56 208.96 4.5 201.25 4.5 201.25 6.95 219.76 6.95 219.76 4.5"/><path class="cls-5" d="M225.74,25a1.16,1.16,0,0,0,.16-.6V12.28h-3.34l.77-1.58H220.1l-.77,1.58h-4.8l-.77-1.58h-3.24l.77,1.58h-1.68a1.86,1.86,0,0,0-1.16.37,1.38,1.38,0,0,0-.48,1.18V25.77H211v-11l11.81-.1v8.85h-2.51v2.25h3.85a2.15,2.15,0,0,0,.6-.09,1.79,1.79,0,0,0,.55-.27A1.46,1.46,0,0,0,225.74,25Z" transform="translate(-6.5 -3.19)"/><path class="cls-5" d="M228.17,25.33h2.65a25,25,0,0,0,1-4.34,31.94,31.94,0,0,0,0-9.37,25,25,0,0,0-1-4.35h-2.65a25,25,0,0,1,1,4.35,31.94,31.94,0,0,1,0,9.37A25,25,0,0,1,228.17,25.33Z" transform="translate(-6.5 -3.19)"/><polygon class="cls-5" points="237.2 20.11 235.34 20.11 235.34 13.67 236.84 13.67 236.84 11.22 235.34 11.22 235.34 6.36 237.43 6.36 237.43 3.91 227.97 3.91 227.97 6.36 232.28 6.36 232.28 20.11 231.17 20.11 231.17 9.19 228.31 9.19 228.31 20.11 227.76 20.11 227.76 22.55 237.2 22.55 237.2 20.11"/><path class="cls-5" d="M248.51,25l.55-1.76,1.18,2.55h3l-3-6.34,2.59-8.24h.45V8.77H248l.3-2h-3l-1.56,10.27h2.45l1.17,2.49-1.2,3.87h-1.9l.22,2.37h2.76a1.67,1.67,0,0,0,.79-.19A1.09,1.09,0,0,0,248.51,25Zm-1.34-11,.43-2.75h2.31l-1.4,4.5L247.7,14Z" transform="translate(-6.5 -3.19)"/><path class="cls-5" d="M273.09,25a1.08,1.08,0,0,0,.15-.56v-6.4h-8.89l.51-1.15L262.12,16l-1,2.09h-5.87v2.45H260l-1.3,2.84h-3.28l.24,2.45h4.17a2.16,2.16,0,0,0,.78-.15,1,1,0,0,0,.56-.54l2.05-4.6h6.91v2.82h-3.63v2.45h5.08a1.9,1.9,0,0,0,.56-.09,1.85,1.85,0,0,0,.52-.26A1.37,1.37,0,0,0,273.09,25Z" transform="translate(-6.5 -3.19)"/><path class="cls-5" d="M259.22,9.79h10.27v.5l-5,1.81-4.94-1.77-1.24,2.28,2.39.87-2,.73h-3.46l.24,2.45h3.65a2.1,2.1,0,0,0,.42,0l.39-.1,4.6-1.68,4.68,1.7a2.43,2.43,0,0,0,.77.12h3.67l.22-2.45h-3.44l-2.09-.73,3.22-1.19a1.53,1.53,0,0,0,.66-.45,1.12,1.12,0,0,0,.27-.76V8.67a1.08,1.08,0,0,0-.15-.56,1.37,1.37,0,0,0-.39-.42,1.85,1.85,0,0,0-.52-.26,1.9,1.9,0,0,0-.56-.09H260.6l.32-.57h-3.14l-2.65,4.74h3.14Z" transform="translate(-6.5 -3.19)"/><path class="cls-5" d="M276,14.1v2.45h3.61l-2.78,7.52a.93.93,0,0,0,0,.62,1.15,1.15,0,0,0,.34.49,1.81,1.81,0,0,0,.54.33,1.67,1.67,0,0,0,.6.12h13.92a1.9,1.9,0,0,0,.67-.12,1.48,1.48,0,0,0,.53-.34,1.09,1.09,0,0,0,.24-1.2l-2.19-6.26-2.9.73,1.58,4.74h-9.8l2.45-6.64h11.63V14.1Z" transform="translate(-6.5 -3.19)"/><rect class="cls-5" x="270.61" y="3.73" width="16.25" height="2.45"/><polygon class="cls-5" points="50.59 27 52.13 27 52.13 31.8 52.81 31.8 52.81 27 54.35 27 54.35 26.43 50.59 26.43 50.59 27"/><polygon class="cls-5" points="58.15 28.76 55.61 28.76 55.61 26.43 54.93 26.43 54.93 31.8 55.61 31.8 55.61 29.32 58.15 29.32 58.15 31.8 58.83 31.8 58.83 26.43 58.15 26.43 58.15 28.76"/><polygon class="cls-5" points="59.95 31.8 63.17 31.8 63.17 31.24 60.63 31.24 60.63 29.34 62.8 29.34 62.8 28.78 60.63 28.78 60.63 27 63.17 27 63.17 26.43 59.95 26.43 59.95 31.8"/><path class="cls-5" d="M72.26,32.3c0-1.35.46-2.16,1.53-2.16a3.1,3.1,0,0,1,1.36.28v-.59a2.87,2.87,0,0,0-1.39-.3c-1.49,0-2.19,1.13-2.19,2.76,0,1.82.79,2.78,2.17,2.78a3.28,3.28,0,0,0,1.47-.27v-.58a3.33,3.33,0,0,1-1.37.25C72.87,34.49,72.26,33.82,72.26,32.3Z" transform="translate(-6.5 -3.19)"/><polygon class="cls-5" points="69.16 26.96 69.84 26.96 69.84 31.27 69.16 31.27 69.16 31.8 71.2 31.8 71.2 31.27 70.52 31.27 70.52 26.96 71.2 26.96 71.2 26.43 69.16 26.43 69.16 26.96"/><path class="cls-5" d="M84.11,31.65a4.38,4.38,0,0,0-.31.73,5.12,5.12,0,0,0-.3-.73l-1.07-2H78v.56h1.54V35h.68v-4.8h1.54v-.41l1.69,3.1V35h.68v-2.1l1.77-3.26h-.73Z" transform="translate(-6.5 -3.19)"/><polygon class="cls-5" points="80.87 26.96 81.55 26.96 81.55 31.27 80.87 31.27 80.87 31.8 82.92 31.8 82.92 31.27 82.23 31.27 82.23 26.96 82.92 26.96 82.92 26.43 80.87 26.43 80.87 26.96"/><path class="cls-5" d="M93.62,33.24c0,.23,0,.56,0,.85a7.57,7.57,0,0,0-.44-.85L91,29.63h-.73V35h.67V31.39c0-.23,0-.57,0-.87a5.57,5.57,0,0,0,.44.87L93.57,35h.72V29.63h-.67Z" transform="translate(-6.5 -3.19)"/><path class="cls-5" d="M99.65,32.21a3,3,0,0,0-.26.56,3.51,3.51,0,0,0-.25-.56l-1.47-2.58h-.79V35h.67V31.15c0-.18,0-.41,0-.62a4.84,4.84,0,0,0,.3.62l1.34,2.33h.45L101,31.15c.09-.16.19-.39.28-.61,0,.21,0,.44,0,.61V35h.67V29.63h-.78Z" transform="translate(-6.5 -3.19)"/><polygon class="cls-5" points="96.27 26.96 96.95 26.96 96.95 31.27 96.27 31.27 96.27 31.8 98.31 31.8 98.31 31.27 97.63 31.27 97.63 26.96 98.31 26.96 98.31 26.43 96.27 26.43 96.27 26.96"/><path class="cls-5" d="M107.32,29.63h-1.64V35h1.59c1.79,0,2.36-1.16,2.36-2.69S109.08,29.63,107.32,29.63Zm-.1,4.82h-.86V30.18h.86c1.24,0,1.7.76,1.7,2.14S108.44,34.45,107.22,34.45Z" transform="translate(-6.5 -3.19)"/><path class="cls-5" d="M112.14,29.63h-1.64V35h1.59c1.79,0,2.36-1.16,2.36-2.69S113.89,29.63,112.14,29.63Zm-.1,4.82h-.86V30.18H112c1.24,0,1.7.76,1.7,2.14S113.25,34.45,112,34.45Z" transform="translate(-6.5 -3.19)"/><polygon class="cls-5" points="109.49 26.43 108.81 26.43 108.81 31.8 111.71 31.8 111.71 31.24 109.49 31.24 109.49 26.43"/><polygon class="cls-5" points="112.3 31.8 115.52 31.8 115.52 31.24 112.98 31.24 112.98 29.34 115.15 29.34 115.15 28.78 112.98 28.78 112.98 27 115.52 27 115.52 26.43 112.3 26.43 112.3 31.8"/><path class="cls-5" d="M126.1,29.54c-1.61,0-2.16,1.18-2.16,2.78s.55,2.76,2.15,2.76,2.17-1.18,2.17-2.78S127.7,29.54,126.1,29.54Zm0,5c-1.07,0-1.45-.92-1.45-2.19s.38-2.19,1.45-2.19,1.44.92,1.44,2.19S127.16,34.5,126.1,34.5Z" transform="translate(-6.5 -3.19)"/><polygon class="cls-5" points="122.61 31.8 123.29 31.8 123.29 29.46 125.5 29.46 125.5 28.89 123.29 28.89 123.29 27 125.64 27 125.64 26.43 122.61 26.43 122.61 31.8"/><path class="cls-5" d="M136.87,29.63l-1.07,2a4.33,4.33,0,0,0-.31.73,5.12,5.12,0,0,0-.3-.73l-1.07-2h-.73l1.77,3.25V35h.68v-2.1l1.77-3.26Z" transform="translate(-6.5 -3.19)"/><path class="cls-5" d="M138.94,29.63,137,35h.69l.46-1.37h2.22l.46,1.37h.73l-1.92-5.36ZM138.37,33l.73-2.15a5.24,5.24,0,0,0,.19-.7,3.64,3.64,0,0,0,.19.7L140.2,33Z" transform="translate(-6.5 -3.19)"/><path class="cls-5" d="M145.44,33.24c0,.23,0,.56,0,.85a7.5,7.5,0,0,0-.44-.85l-2.22-3.61h-.73V35h.67V31.39c0-.23,0-.57,0-.87a5.53,5.53,0,0,0,.44.87L145.39,35h.72V29.63h-.67Z" transform="translate(-6.5 -3.19)"/><path class="cls-5" d="M150.45,34.35a3.68,3.68,0,0,1-1.1.14c-1,0-1.71-.61-1.71-2.2s.62-2.14,1.79-2.14a3.15,3.15,0,0,1,1.37.28v-.59a2.94,2.94,0,0,0-1.4-.3c-1.59,0-2.45,1-2.45,2.75s.86,2.79,2.36,2.79a4.13,4.13,0,0,0,1.83-.34V32.43h-.68Z" transform="translate(-6.5 -3.19)"/><polygon class="cls-5" points="144.94 27 146.49 27 146.49 31.8 147.17 31.8 147.17 27 148.71 27 148.71 26.43 144.94 26.43 144.94 27"/><polygon class="cls-5" points="152.57 27.01 152.57 26.43 148.9 26.43 148.9 27 151.75 27 148.81 31.22 148.81 31.8 152.68 31.8 152.68 31.24 149.63 31.24 152.57 27.01"/><polygon class="cls-5" points="153.33 31.8 156.55 31.8 156.55 31.24 154.01 31.24 154.01 29.34 156.18 29.34 156.18 28.78 154.01 28.78 154.01 27 156.55 27 156.55 26.43 153.33 26.43 153.33 31.8"/><path class="cls-5" d="M167.41,32.67a1.41,1.41,0,0,0,1.17-1.51c0-1-.57-1.53-1.71-1.53h-1.64V35h.68V32.74h.56c.3,0,.43.12.64.47L168.23,35H169l-1.2-1.9A1.26,1.26,0,0,0,167.41,32.67Zm-.67-.45h-.83v-2h.86c.78,0,1.11.33,1.11,1S167.46,32.22,166.74,32.22Z" transform="translate(-6.5 -3.19)"/><polygon class="cls-5" points="162.93 26.96 163.61 26.96 163.61 31.27 162.93 31.27 162.93 31.8 164.97 31.8 164.97 31.27 164.29 31.27 164.29 26.96 164.97 26.96 164.97 26.43 162.93 26.43 162.93 26.96"/><path class="cls-5" d="M174.18,33.59a5,5,0,0,0-.19.65,4.08,4.08,0,0,0-.19-.65l-1.34-4h-.74l1.9,5.36h.73l1.89-5.36h-.71Z" transform="translate(-6.5 -3.19)"/><polygon class="cls-5" points="170.24 31.8 173.46 31.8 173.46 31.24 170.92 31.24 170.92 29.34 173.09 29.34 173.09 28.78 170.92 28.78 170.92 27 173.46 27 173.46 26.43 170.24 26.43 170.24 31.8"/><path class="cls-5" d="M182.86,32.67A1.41,1.41,0,0,0,184,31.16c0-1-.57-1.53-1.71-1.53h-1.64V35h.68V32.74h.56c.3,0,.43.12.64.47L183.68,35h.79l-1.2-1.9A1.26,1.26,0,0,0,182.86,32.67Zm-.67-.45h-.83v-2h.86c.78,0,1.11.33,1.11,1S182.9,32.22,182.18,32.22Z" transform="translate(-6.5 -3.19)"/><path class="cls-5" d="M188.52,29.38H188a3.61,3.61,0,0,0-1.5,3.15,3.62,3.62,0,0,0,1.5,3.15h.5a4.45,4.45,0,0,1,0-6.3Z" transform="translate(-6.5 -3.19)"/><path class="cls-5" d="M191.59,32.19a1.18,1.18,0,0,0,.67-1.14c0-.9-.57-1.42-1.76-1.42H189V35h1.67c1.31,0,1.84-.59,1.84-1.47A1.38,1.38,0,0,0,191.59,32.19Zm-1.9-2h.72c.79,0,1.15.36,1.15.87s-.27.93-1,.93h-.82Zm.93,4.24h-.93v-1.9h1c.8,0,1.11.41,1.11,1S191.46,34.43,190.62,34.43Z" transform="translate(-6.5 -3.19)"/><path class="cls-5" d="M196.37,33.25c0,.85-.37,1.26-1.23,1.26s-1.22-.41-1.22-1.26V29.63h-.68v3.75c0,1.15.57,1.7,1.9,1.7s1.91-.56,1.91-1.7V29.63h-.68Z" transform="translate(-6.5 -3.19)"/><path class="cls-5" d="M199.64,32c-.77-.22-1.13-.4-1.13-.93s.36-.9,1.11-.9a2.82,2.82,0,0,1,1.38.3v-.59a2.62,2.62,0,0,0-1.38-.3c-1.25,0-1.81.61-1.81,1.51s.59,1.24,1.57,1.52c.77.22,1.13.43,1.13,1s-.44,1-1.27,1a4,4,0,0,1-1.5-.3v.59a3.26,3.26,0,0,0,1.53.3c1.3,0,1.95-.68,1.95-1.56S200.62,32.25,199.64,32Z" transform="translate(-6.5 -3.19)"/><polygon class="cls-5" points="195.23 26.96 195.91 26.96 195.91 31.27 195.23 31.27 195.23 31.8 197.27 31.8 197.27 31.27 196.59 31.27 196.59 26.96 197.27 26.96 197.27 26.43 195.23 26.43 195.23 26.96"/><path class="cls-5" d="M208,33.24c0,.23,0,.56,0,.85a7.5,7.5,0,0,0-.44-.85l-2.22-3.61h-.73V35h.67V31.39c0-.23,0-.57,0-.87a5.53,5.53,0,0,0,.44.87L207.93,35h.72V29.63H208Z" transform="translate(-6.5 -3.19)"/><polygon class="cls-5" points="203.27 31.8 206.49 31.8 206.49 31.24 203.95 31.24 203.95 29.34 206.12 29.34 206.12 28.78 203.95 28.78 203.95 27 206.49 27 206.49 26.43 203.27 26.43 203.27 31.8"/><path class="cls-5" d="M215.27,32c-.77-.22-1.13-.4-1.13-.93s.36-.9,1.11-.9a2.82,2.82,0,0,1,1.38.3v-.59a2.62,2.62,0,0,0-1.38-.3c-1.25,0-1.81.61-1.81,1.51s.59,1.24,1.57,1.52c.77.22,1.13.43,1.13,1s-.44,1-1.27,1a4,4,0,0,1-1.5-.3v.59a3.26,3.26,0,0,0,1.53.3c1.3,0,1.95-.68,1.95-1.56S216.26,32.25,215.27,32Z" transform="translate(-6.5 -3.19)"/><path class="cls-5" d="M219.12,32c-.77-.22-1.13-.4-1.13-.93s.36-.9,1.11-.9a2.82,2.82,0,0,1,1.38.3v-.59a2.62,2.62,0,0,0-1.38-.3c-1.25,0-1.81.61-1.81,1.51s.59,1.24,1.57,1.52c.77.22,1.13.43,1.13,1s-.44,1-1.27,1a4,4,0,0,1-1.5-.3v.59a3.26,3.26,0,0,0,1.53.3c1.3,0,1.95-.68,1.95-1.56S220.1,32.25,219.12,32Z" transform="translate(-6.5 -3.19)"/><path class="cls-5" d="M221.33,29.38h-.5a4.45,4.45,0,0,1,0,6.3h.5a3.62,3.62,0,0,0,1.5-3.15A3.61,3.61,0,0,0,221.33,29.38Z" transform="translate(-6.5 -3.19)"/><path class="cls-5" d="M228.55,34.35a3.68,3.68,0,0,1-1.1.14c-1,0-1.71-.61-1.71-2.2s.62-2.14,1.79-2.14a3.15,3.15,0,0,1,1.37.28v-.59a2.94,2.94,0,0,0-1.4-.3c-1.59,0-2.45,1-2.45,2.75s.86,2.79,2.36,2.79a4.13,4.13,0,0,0,1.83-.34V32.43h-.68Z" transform="translate(-6.5 -3.19)"/><path class="cls-5" d="M232,29.54c-1.61,0-2.16,1.18-2.16,2.78s.55,2.76,2.15,2.76,2.17-1.18,2.17-2.78S233.59,29.54,232,29.54Zm0,5c-1.07,0-1.45-.92-1.45-2.19s.38-2.19,1.45-2.19,1.44.92,1.44,2.19S233.06,34.5,232,34.5Z" transform="translate(-6.5 -3.19)"/><path class="cls-5" d="M236.78,33.59a5,5,0,0,0-.19.65,4.08,4.08,0,0,0-.19-.65l-1.34-4h-.74l1.9,5.36h.73l1.89-5.36h-.71Z" transform="translate(-6.5 -3.19)"/><polygon class="cls-5" points="232.84 31.8 236.06 31.8 236.06 31.24 233.52 31.24 233.52 29.34 235.69 29.34 235.69 28.78 233.52 28.78 233.52 27 236.06 27 236.06 26.43 232.84 26.43 232.84 31.8"/><path class="cls-5" d="M245.46,32.67a1.41,1.41,0,0,0,1.17-1.51c0-1-.57-1.53-1.71-1.53h-1.64V35H244V32.74h.56c.3,0,.43.12.64.47L246.28,35h.79l-1.2-1.9A1.26,1.26,0,0,0,245.46,32.67Zm-.67-.45H244v-2h.86c.78,0,1.11.33,1.11,1S245.5,32.22,244.78,32.22Z" transform="translate(-6.5 -3.19)"/><path class="cls-5" d="M251.07,33.24c0,.23,0,.56,0,.85a7.5,7.5,0,0,0-.44-.85l-2.22-3.61h-.73V35h.67V31.39c0-.23,0-.57,0-.87a5.53,5.53,0,0,0,.44.87L251,35h.72V29.63h-.67Z" transform="translate(-6.5 -3.19)"/><path class="cls-5" d="M255.63,32.21a3,3,0,0,0-.26.56,3.54,3.54,0,0,0-.25-.56l-1.47-2.58h-.79V35h.67V31.15c0-.18,0-.41,0-.62a4.9,4.9,0,0,0,.3.62l1.34,2.33h.45L257,31.15c.09-.16.19-.39.28-.61,0,.21,0,.44,0,.61V35h.67V29.63h-.78Z" transform="translate(-6.5 -3.19)"/><polygon class="cls-5" points="252.51 31.8 255.73 31.8 255.73 31.24 253.19 31.24 253.19 29.34 255.36 29.34 255.36 28.78 253.19 28.78 253.19 27 255.73 27 255.73 26.43 252.51 26.43 252.51 31.8"/><path class="cls-5" d="M266.28,33.24c0,.23,0,.56,0,.85a7.5,7.5,0,0,0-.44-.85l-2.22-3.61h-.73V35h.67V31.39c0-.23,0-.57,0-.87a5.53,5.53,0,0,0,.44.87L266.23,35h.72V29.63h-.67Z" transform="translate(-6.5 -3.19)"/><polygon class="cls-5" points="261.03 27 262.57 27 262.57 31.8 263.25 31.8 263.25 27 264.79 27 264.79 26.43 261.03 26.43 261.03 27"/><path class="cls-5" d="M273.52,32.3c0-1.35.46-2.16,1.53-2.16a3.1,3.1,0,0,1,1.36.28v-.59a2.87,2.87,0,0,0-1.38-.3c-1.49,0-2.19,1.13-2.19,2.76,0,1.82.79,2.78,2.17,2.78a3.28,3.28,0,0,0,1.47-.27v-.58a3.33,3.33,0,0,1-1.37.25C274.13,34.49,273.52,33.82,273.52,32.3Z" transform="translate(-6.5 -3.19)"/><polygon class="cls-5" points="271.36 26.43 270.68 26.43 270.68 31.8 273.58 31.8 273.58 31.24 271.36 31.24 271.36 26.43"/><path class="cls-5" d="M282.37,29.54c-1.61,0-2.16,1.18-2.16,2.78s.55,2.76,2.15,2.76,2.17-1.18,2.17-2.78S284,29.54,282.37,29.54Zm0,5c-1.07,0-1.45-.92-1.45-2.19s.38-2.19,1.45-2.19,1.44.92,1.44,2.19S283.43,34.5,282.37,34.5Z" transform="translate(-6.5 -3.19)"/><path class="cls-5" d="M288.41,33.25c0,.85-.37,1.26-1.23,1.26S286,34.1,286,33.25V29.63h-.68v3.75c0,1.15.57,1.7,1.9,1.7s1.91-.56,1.91-1.7V29.63h-.68Z" transform="translate(-6.5 -3.19)"/><path class="cls-5" d="M291.76,29.63h-1.64V35h1.59c1.79,0,2.36-1.16,2.36-2.69S293.51,29.63,291.76,29.63Zm-.1,4.82h-.86V30.18h.86c1.24,0,1.7.76,1.7,2.14S292.88,34.45,291.65,34.45Z" transform="translate(-6.5 -3.19)"/></svg>